Coordinates
version=1
nRows=14
nColumns=24
inDegrees=yes

Units are S.I. units (second, meters, Newtons, ...)
Angles are in degrees.

endheader
time	pelvis_tilt	pelvis_list	pelvis_rotation	pelvis_tx	pelvis_ty	pelvis_tz	hip_flexion_r	hip_adduction_r	hip_rotation_r	knee_angle_r	ankle_angle_r	subtalar_angle_r	mtp_angle_r	hip_flexion_l	hip_adduction_l	hip_rotation_l	knee_angle_l	ankle_angle_l	subtalar_angle_l	mtp_angle_l	lumbar_extension	lumbar_bending	lumbar_rotation
      0.80450000	     -0.61084722	     -0.59083142	      0.60912738	     -0.47548555	      0.99529297	      0.33442200	     10.11965012	      5.07542587	     -1.68442154	    -16.12312345	      7.27596673	     -7.78378395	      3.28363408	     19.00389126	     -0.36108245	     -0.26243399	    -70.43934965	     -8.01106556	     -7.53496178	      1.60655513	      1.15694547	      3.65067432	      2.66879444
      0.80866667	     -0.61758214	     -0.48671115	      0.54143171	     -0.47047994	      0.99588457	      0.33454716	      9.67663739	      4.94540225	     -1.81915683	    -15.88532511	      7.47824783	     -7.28308096	      3.03890258	     19.62095863	     -0.22307221	     -0.29460736	    -70.34885815	     -7.35474825	     -7.92631637	      0.07933145	      1.14593484	      3.55190192	      2.80249586
      0.81283333	     -0.53274170	     -0.41106395	      0.47273323	     -0.46545204	      0.99661244	      0.33475039	      9.05852579	      4.88140191	     -1.75479296	    -15.49128312	      7.53218374	     -7.27421888	      3.02347128	     20.11423452	     -0.13151709	     -0.32830722	    -70.18560210	     -6.74985733	     -8.32707397	     -0.01339830	      0.99983518	      3.47150208	      2.90147879
      0.81700000	     -0.52098437	     -0.33617589	      0.39581446	     -0.46046618	      0.99719394	      0.33493757	      8.54816328	      4.80932656	     -1.72423483	    -15.15169678	      7.64187522	     -7.17470865	      3.02076254	     20.68383772	     -0.04257672	     -0.37115002	    -69.98614526	     -6.13484655	     -8.69223716	     -0.04270236	      0.96016514	      3.41274917	      2.96470469
      0.82116667	     -0.41443977	     -0.25562425	      0.30499617	     -0.45542585	      0.99789628	      0.33515530	      7.91978129	      4.72815919	     -1.72505305	    -14.78268545	      7.74422331	     -6.94260846	      3.00669807	     21.11419470	      0.03854419	     -0.44135601	    -69.70024161	     -5.56636354	     -9.09408147	     -0.15481041	      0.78996317	      3.32125572	      3.16609148
      0.82533333	     -0.40503951	     -0.17907991	      0.20244183	     -0.45046792	      0.99838464	      0.33537630	      7.43037667	      4.65096872	     -1.70788850	    -14.47532307	      7.85530314	     -6.78178910	      3.00112672	     21.65479907	      0.11195728	     -0.52133408	    -69.39479859	     -4.96252144	     -9.46394483	     -0.21527770	      0.73377584	      3.23973418	      3.25908441
      0.82950000	     -0.33039722	     -0.08044737	      0.10410479	     -0.44545835	      0.99897507	      0.33556887	      6.84709743	      4.54299777	     -1.71338020	    -14.12236923	      7.97524314	     -6.50945374	      2.98934535	     22.08935476	      0.21532037	     -0.59804278	    -68.99871645	     -4.42770641	     -9.81919941	     -0.34173768	      0.61358185	      3.15198842	      3.45358141
      0.83366667	     -0.31994827	     -0.01139242	     -0.00732870	     -0.44052247	      0.99939222	      0.33579809	      6.35937672	      4.47254615	     -1.69025339	    -13.81471617	      8.08247349	     -6.34037597	      2.98457826	     22.59845089	      0.27191666	     -0.68796855	    -68.59040199	     -3.84020307	    -10.14863638	     -0.40966357	      0.55143320	      3.07536413	      3.53941962
      0.83783333	     -0.28496059	      0.06334828	     -0.12081362	     -0.43556503	      0.99981507	      0.33601076	      5.83544708	      4.39095172	     -1.67491471	    -13.48741476	      8.19349642	     -6.11943724	      2.97845593	     23.05570772	      0.33453981	     -0.78036827	    -68.11508473	     -3.28619334	    -10.44334939	     -0.50383861	      0.47052710	      3.00629261	      3.68424030
      0.84200000	     -0.29637780	      0.14130610	     -0.22140207	     -0.43065939	      1.00014141	      0.33620071	      5.36558812	      4.30854122	     -1.63054824	    -13.16103561	      8.30736381	     -5.95455900	      2.97693418	     23.55579062	      0.41606888	     -0.83988070	    -67.59350009	     -2.74975128	    -10.70504596	     -0.55573490	      0.42182687	      2.93611932	      3.77066726
      0.84616667	     -0.21367933	      0.21339858	     -0.32976256	     -0.42567537	      1.00056699	      0.33640459	      4.78300398	      4.22302888	     -1.65869472	    -12.81667388	      8.41457709	     -5.64836076	      2.96787119	     23.91959590	      0.46980107	     -0.93393862	    -67.00207655	     -2.24230807	    -10.91734077	     -0.72137899	      0.29134364	      2.86260681	      3.99575459
      0.85033333	     -0.24025750	      0.27955069	     -0.44727340	     -0.42079217	      1.00077127	      0.33660254	      4.34723679	      4.15059731	     -1.60985615	    -12.52176420	      8.52365048	     -5.50243291	      2.96804483	     24.40486717	      0.52287273	     -1.01779932	    -66.38959756	     -1.71316606	    -11.13587813	     -0.77145524	      0.26683906	      2.79910953	      4.04869555
      0.85450000	     -0.20030564	      0.35388098	     -0.58932111	     -0.41585093	      1.00104251	      0.33682971	      3.83771147	      4.06288348	     -1.59275356	    -12.22532268	      8.62353540	     -5.25834955	      2.96662307	     24.78017519	      0.56321915	     -1.14626173	    -65.70047624	     -1.20071292	    -11.29290085	     -0.87912207	      0.18397669	      2.73448880	      4.20054995
      0.85866667	     -0.17888679	      0.42921609	     -0.69043691	     -0.41091956	      1.00125657	      0.33698906	      3.33805615	      3.96937122	     -1.61375936	    -11.90315425	      8.73891255	     -4.96262138	      2.96553234	     25.16598699	      0.62935172	     -1.21894119	    -64.96618155	     -0.74426439	    -11.40009252	     -1.06780882	      0.10810938	      2.65236642	      4.38714345
